<?xml version="1.0" standalone="no"?>
<!DOCTYPE svg PUBLIC "-//W3C//DTD SVG 20010904//EN"
 "http://www.w3.org/TR/2001/REC-SVG-20010904/DTD/svg10.dtd">
<svg version="1.0" xmlns="http://www.w3.org/2000/svg"
 width="1500.000000pt" height="500.000000pt" viewBox="0 0 1500.000000 500.000000"
 preserveAspectRatio="xMidYMid meet">

<g transform="translate(0.000000,500.000000) scale(0.100000,-0.100000)"
fill="#000000" stroke="none">
<path d="M0 2500 l0 -2500 7500 0 7500 0 0 2500 0 2500 -7500 0 -7500 0 0
-2500z m2967 504 c53 -8 119 -25 145 -36 63 -27 131 -103 158 -176 29 -75 42
-220 35 -362 -10 -180 -40 -274 -107 -336 -78 -74 -170 -94 -437 -94 -199 0
-201 0 -216 23 -13 21 -15 88 -16 478 -1 305 2 463 9 481 11 25 16 27 84 31
175 8 254 6 345 -9z m1977 -14 c164 -63 262 -270 128 -270 -47 0 -63 12 -105
75 -47 72 -115 105 -216 105 -207 -1 -281 -128 -268 -461 4 -109 9 -146 27
-186 42 -98 114 -143 233 -146 56 -1 84 4 123 22 98 43 142 112 151 237 l6 73
-113 -6 c-75 -4 -111 -3 -107 4 4 5 -5 16 -18 23 -27 14 -26 44 1 66 7 6 11
14 7 17 -13 13 301 7 327 -6 25 -13 25 -14 25 -137 -1 -181 -37 -270 -137
-337 -230 -156 -560 -65 -637 175 -57 175 -49 428 16 574 60 136 209 211 403
204 69 -2 111 -9 154 -26z m2829 0 c79 -32 153 -100 188 -175 32 -67 36 -106
14 -125 -18 -15 -107 -27 -103 -14 1 5 -10 32 -25 61 -62 121 -133 166 -256
166 -127 0 -203 -57 -241 -180 -28 -89 -33 -162 -21 -308 13 -165 38 -223 118
-271 122 -73 300 -39 363 70 51 87 85 126 113 126 29 0 67 -31 67 -55 0 -39
-47 -133 -89 -178 -75 -80 -171 -117 -306 -117 -220 0 -356 106 -395 308 -17
82 -8 360 13 435 43 151 131 243 264 277 67 16 231 5 296 -20z m518 -8 c11
-21 14 -92 14 -322 1 -325 6 -364 58 -451 44 -73 95 -99 194 -99 112 0 173 32
215 115 49 95 60 210 47 492 -8 187 -7 217 7 252 14 36 20 41 49 41 32 0 56
-19 68 -53 4 -10 7 -160 7 -335 0 -330 -4 -368 -46 -457 -113 -239 -553 -239
-676 0 -44 84 -48 123 -48 475 1 351 2 363 45 372 33 7 52 -2 66 -30z m1377
19 c113 -25 158 -48 209 -105 142 -161 44 -427 -177 -486 -27 -8 -109 -12
-207 -11 l-163 0 0 -177 c0 -145 -3 -182 -16 -200 -18 -27 -69 -30 -96 -5 -17
15 -18 43 -18 487 1 368 3 475 13 488 15 19 55 23 243 26 87 1 145 -3 212 -17z
m906 -1 c83 -26 142 -71 184 -140 35 -59 40 -91 17 -110 -15 -12 -105 -28 -94
-16 4 4 -8 22 -25 40 -17 18 -39 45 -50 61 -29 43 -89 65 -179 65 -116 0 -187
-44 -203 -126 -15 -81 65 -155 215 -200 238 -70 297 -101 349 -178 27 -41 32
-57 32 -110 0 -70 -21 -124 -71 -180 -77 -88 -175 -121 -339 -113 -122 5 -196
29 -260 84 -84 73 -115 173 -61 199 37 19 74 -1 123 -65 53 -68 94 -90 195
-103 150 -20 273 48 273 151 0 86 -63 132 -270 197 -80 26 -163 57 -185 70
-54 31 -111 91 -130 136 -48 115 33 257 188 329 79 36 190 40 291 9z m1733
-19 c139 -75 208 -235 212 -494 1 -108 -2 -146 -19 -207 -44 -155 -112 -235
-233 -271 -57 -18 -86 -21 -170 -16 -126 6 -183 26 -253 90 -101 92 -131 213
-114 462 19 289 71 383 250 453 46 19 72 22 160 19 97 -2 110 -5 167 -36z
m-8162 17 c28 -13 43 -53 28 -77 -16 -26 -48 -29 -290 -30 l-233 -1 0 -159 0
-159 234 -4 c129 -2 237 -6 239 -8 2 -3 7 -26 11 -51 6 -43 5 -47 -16 -53 -13
-3 -118 -6 -234 -6 -175 0 -214 -3 -224 -15 -17 -20 -24 -125 -15 -230 l7 -86
248 2 c231 3 251 2 270 -16 25 -23 26 -67 1 -89 -17 -15 -50 -17 -316 -17
-288 -1 -298 0 -318 20 -21 20 -21 28 -22 478 0 341 3 465 12 486 l13 27 289
0 c200 0 298 -4 316 -12z m1840 0 c28 -13 43 -53 28 -77 -16 -26 -48 -29 -290
-30 l-233 -1 0 -159 0 -159 234 -4 c129 -2 237 -6 239 -8 2 -3 7 -26 11 -51 6
-43 5 -47 -16 -53 -13 -3 -118 -6 -234 -6 -175 0 -214 -3 -224 -15 -17 -20
-24 -125 -15 -230 l7 -86 248 2 c231 3 251 2 270 -16 25 -23 26 -67 1 -89 -17
-15 -50 -17 -316 -17 -288 -1 -298 0 -318 20 -21 20 -21 28 -22 478 0 341 3
465 12 486 l13 27 289 0 c200 0 298 -4 316 -12z m305 2 c0 -5 9 -10 20 -10 36
0 103 -75 184 -206 163 -264 229 -365 291 -449 l63 -87 4 365 c1 201 5 367 8
370 3 2 28 7 56 11 l51 6 6 -142 c8 -168 8 -849 0 -830 -4 10 -9 8 -20 -7 -21
-31 -66 -27 -106 9 -19 16 -106 145 -195 287 -88 142 -189 296 -224 343 l-63
85 -5 -358 c-5 -340 -6 -359 -24 -373 -49 -35 -100 -3 -108 67 -3 24 -4 231
-4 459 1 438 4 470 46 470 11 0 20 -4 20 -10z m613 3 c-7 -2 -19 -2 -25 0 -7
3 -2 5 12 5 14 0 19 -2 13 -5z m4565 -4 c17 -6 34 -20 38 -31 3 -12 6 -223 6
-469 1 -400 -1 -451 -16 -474 -31 -47 -108 -29 -124 28 -11 40 -3 904 9 935
10 25 37 28 87 11z m-326 -853 c4 -6 8 -32 8 -58 0 -63 -24 -88 -84 -88 -26 0
-51 6 -59 15 -8 8 -18 11 -22 7 -4 -4 -5 24 -1 63 4 38 12 73 19 77 17 11 130
-2 139 -16z"/>
<path d="M2670 2505 l0 -385 138 0 c251 0 323 47 351 227 24 157 9 343 -36
424 -50 93 -118 119 -315 119 l-138 0 0 -385z"/>
<path d="M9398 2893 c-55 -4 -57 -5 -63 -36 -3 -18 -5 -102 -3 -187 l3 -155
125 -3 c232 -5 316 34 336 156 15 92 -40 185 -123 210 -46 14 -189 22 -275 15z"/>
<path d="M12028 2884 c-32 -10 -58 -28 -85 -58 -59 -67 -66 -99 -77 -351 -3
-60 -1 -92 4 -80 7 16 9 13 9 -16 1 -59 39 -166 72 -204 44 -50 103 -69 191
-62 98 8 152 42 192 119 74 147 52 488 -40 597 -55 66 -160 88 -266 55z"/>
</g>
</svg>
