<?xml version="1.0" encoding="utf-8"?>
<!-- Generator: Adobe Illustrator 23.0.0, SVG Export Plug-In . SVG Version: 6.00 Build 0)  -->
<svg version="1.1" id="Logo" xmlns="http://www.w3.org/2000/svg" xmlns:xlink="http://www.w3.org/1999/xlink" x="0px" y="0px"
	 viewBox="0 0 1149.56 923.33" style="enable-background:new 0 0 1149.56 923.33;" xml:space="preserve">
<style type="text/css">
	.st0{fill:url(#SVGID_1_);}
	.st1{fill:url(#SVGID_2_);}
	.st2{fill:url(#SVGID_3_);}
	.st3{fill:url(#SVGID_4_);}
	.st4{opacity:0.5;fill:url(#SVGID_5_);}
	.st5{opacity:0.8;}
</style>
<g>
	<g>
		
			<radialGradient id="SVGID_1_" cx="218.4103" cy="602.5709" r="154.6325" gradientTransform="matrix(-nan(ind) -nan(ind) -nan(ind) -nan(ind) -nan(ind) -nan(ind))" gradientUnits="userSpaceOnUse">
			<stop  offset="0" style="stop-color:#C65870"/>
			<stop  offset="0.3467" style="stop-color:#A64E6A"/>
			<stop  offset="0.4815" style="stop-color:#934A6F"/>
			<stop  offset="0.7728" style="stop-color:#62427B"/>
			<stop  offset="0.8894" style="stop-color:#493F80"/>
			<stop  offset="1" style="stop-color:#2A274C"/>
		</radialGradient>
		<path class="st0" d="M319.6,582.88c-23.19-131.63-108.29-223.91-190.78-207.65l11.15-15.42l-43.54,27.82l0.01,0.03
			C32.32,425.56-1.85,533.38,18.53,649.07c21.32,121,94.96,208.77,170.79,209.52l56.94,2.83l-24.4-8.06
			C298.55,827.51,342,709.95,319.6,582.88z"/>
		
			<linearGradient id="SVGID_2_" gradientUnits="userSpaceOnUse" x1="122.8308" y1="-132.4591" x2="543.6076" y2="1224.3492" gradientTransform="matrix(1 0 0 0.7085 0 -11.1752)">
			<stop  offset="0.3589" style="stop-color:#F595A6"/>
			<stop  offset="0.3879" style="stop-color:#F48896"/>
			<stop  offset="0.4528" style="stop-color:#F26B77"/>
			<stop  offset="0.487" style="stop-color:#F15F6D"/>
			<stop  offset="0.5756" style="stop-color:#BF577F"/>
			<stop  offset="0.6588" style="stop-color:#98528D"/>
			<stop  offset="0.7304" style="stop-color:#7B4F96"/>
			<stop  offset="0.7874" style="stop-color:#684D9C"/>
			<stop  offset="0.8228" style="stop-color:#604DA0"/>
			<stop  offset="0.8671" style="stop-color:#514284"/>
			<stop  offset="0.9565" style="stop-color:#352E5B"/>
			<stop  offset="1" style="stop-color:#2A274C"/>
		</linearGradient>
		<path class="st1" d="M255.67,874.8c1.86,0.13,3.72,0.26,5.58,0.31l582.15,32.4L673.85,801.68l-78.83-114.47L538.86,580.3
			l-23.76-199.78l41.04-190.06l52.91-106.91L144.87,343.89l0.01,0.04C70.49,388.17,31.03,506.25,54.49,634.05
			c24.44,133.13,108.96,232.14,198.23,240.52l0.01,0.07L255.67,874.8z"/>
	</g>
	
		<radialGradient id="SVGID_3_" cx="832.0878" cy="1006.253" r="1010.4644" fx="657.7549" fy="206.3257" gradientTransform="matrix(1 0 0 0.4763 0 -20.0756)" gradientUnits="userSpaceOnUse">
		<stop  offset="0.0879" style="stop-color:#D8EFF2"/>
		<stop  offset="0.4262" style="stop-color:#99DAEF"/>
		<stop  offset="0.5103" style="stop-color:#9FCFE7"/>
		<stop  offset="0.6723" style="stop-color:#AAB7D6"/>
		<stop  offset="0.8175" style="stop-color:#B49EC5"/>
	</radialGradient>
	<path class="st2" d="M1106.38,408.84c42.41,231.06-46.01,440.91-197.49,468.71C757.4,905.36,600.21,740.59,557.8,509.54
		C515.39,278.48,603.81,68.63,755.29,40.83S1063.96,177.79,1106.38,408.84z"/>
	<g>
		
			<radialGradient id="SVGID_4_" cx="745.0811" cy="201.6656" r="739.556" fx="561.113" fy="211.0563" gradientTransform="matrix(0.4416 0.8972 -0.6875 0.3384 554.6773 -535.0669)" gradientUnits="userSpaceOnUse">
			<stop  offset="0" style="stop-color:#FFFFFF"/>
			<stop  offset="0.201" style="stop-color:#FBFBFB"/>
			<stop  offset="0.333" style="stop-color:#F2F3F3"/>
			<stop  offset="0.4397" style="stop-color:#E6E7E8"/>
			<stop  offset="0.8492" style="stop-color:#C7C8CA"/>
			<stop  offset="0.9195" style="stop-color:#C5C7C9"/>
			<stop  offset="0.9456" style="stop-color:#BFC1C3"/>
			<stop  offset="0.9643" style="stop-color:#B5B7BA"/>
			<stop  offset="0.9795" style="stop-color:#A8AAAC"/>
			<stop  offset="0.9924" style="stop-color:#96999B"/>
			<stop  offset="1" style="stop-color:#8A8C8E"/>
		</radialGradient>
		<path class="st3" d="M1126.01,405.24c45.56,248.22-55.82,474.84-226.44,506.16c-170.62,31.32-345.88-144.52-391.44-392.74
			S563.94,43.82,734.56,12.5S1080.44,157.02,1126.01,405.24z"/>
		
			<radialGradient id="SVGID_5_" cx="805.0217" cy="206.0543" r="699.7457" fx="630.9567" fy="214.9395" gradientTransform="matrix(0.4284 0.8996 -0.6516 0.3318 558.1534 -579.8826)" gradientUnits="userSpaceOnUse">
			<stop  offset="0" style="stop-color:#BCBEC0"/>
			<stop  offset="0.2012" style="stop-color:#B0B2B4"/>
			<stop  offset="0.5874" style="stop-color:#919396"/>
			<stop  offset="1" style="stop-color:#6D6E71"/>
		</radialGradient>
		<path class="st4" d="M1113.55,408.19c43.11,234.86-46.32,448.09-199.76,476.25c-153.43,28.16-312.77-139.4-355.88-374.26
			C514.81,275.32,604.24,62.1,757.68,33.94S1070.44,173.33,1113.55,408.19z"/>
		
			<ellipse transform="matrix(0.9836 -0.1805 0.1805 0.9836 -69.2297 157.7726)" class="st5" cx="832.09" cy="459.19" rx="278.87" ry="425.35"/>
	</g>
</g>
</svg>
